# xmcd
#
# Track frame offsets: 
#        150
#        13482
#        22377
#        31237
#        38366
#        53011
#        66437
#        77303
#        87122
#        96885
#        105550
#        119412
#
# Disc length: 1877 seconds
#
# Revision: 2
# Processed by: cddbd v1.5.2PL0 Copyright (c) Steve Scherf et al.
# Submitted via: ExactAudioCopy v1.3
#
DISCID=9107530c
DTITLE=World Burns To Death - Totalitarian Sodomy
DYEAR=2006
DGENRE=Hardcore
TTITLE0=Back To Zero
TTITLE1=Boiling Blood
TTITLE2=Sarajevo Snapshot
TTITLE3=Those Who Have Come To The End
TTITLE4=Triumph Of Evil
TTITLE5=A Grim Task Ahead
TTITLE6=The Frenzied Hacking Of Swords
TTITLE7=Excrement Of The Gods
TTITLE8=Children Gone To Shadow
TTITLE9=Blood And Dishonor
TTITLE10=All The Young Turks
TTITLE11=Pigs Get Fat While Hogs Get Slaughtered
EXTD=
EXTT0=
EXTT1=
EXTT2=
EXTT3=
EXTT4=
EXTT5=
EXTT6=
EXTT7=
EXTT8=
EXTT9=
EXTT10=
EXTT11=
PLAYORDER=
